<?xml version="1.0" encoding="UTF-8"?>
<svg version="1.1" xmlns="http://www.w3.org/2000/svg" width="314" height="307">
<path d="M0 0 C103.62 0 207.24 0 314 0 C314 101.31 314 202.62 314 307 C210.38 307 106.76 307 0 307 C0 205.69 0 104.38 0 0 Z " fill="none" transform="translate(0,0)"/>
<path d="M0 0 C85.8 0 171.6 0 260 0 C257.14495308 2.85504692 254.54501521 5.45326 251.5 8 C219.13952222 36.28500408 202.16957036 72.6076978 193 114 C186.0163011 110.6837184 179.33769106 107.09521952 172.73461914 103.07446289 C165.99253895 98.97369466 159.18568001 94.98531067 152.375 91 C151.11626515 90.26282308 149.85755773 89.52559933 148.59887695 88.78833008 C142.86635082 85.43111841 137.13206815 82.07691906 131.39646912 78.72496033 C128.34708753 76.94259435 125.29832951 75.15916467 122.25 73.375 C121.64836029 73.02287445 121.04672058 72.6707489 120.42684937 72.30795288 C110.94199229 66.75359384 101.50782255 61.11865008 92.09179688 55.44824219 C82.19335088 49.49592619 72.2150393 43.68492619 62.22949219 37.88037109 C47.35384843 29.21903089 32.51398394 20.49515995 17.6875 11.75 C16.81722168 11.23751709 15.94694336 10.72503418 15.05029297 10.19702148 C11.14884638 7.89239059 7.2586692 5.56985659 3.39453125 3.203125 C2.7394458 2.80254883 2.08436035 2.40197266 1.40942383 1.98925781 C0.94431396 1.66280273 0.4792041 1.33634766 0 1 C0 0.67 0 0.34 0 0 Z " fill="#FDFDFD" transform="translate(30,157)"/>
<path d="M0 0 C0.09498779 0.55236328 0.18997559 1.10472656 0.2878418 1.67382812 C2.39913825 13.77274716 4.93123085 25.40856801 9 37 C9.22413574 37.65806641 9.44827148 38.31613281 9.67919922 38.99414062 C16.33650861 58.44457172 26.54394955 75.42505848 40 91 C40.8559375 91.99128906 41.711875 92.98257813 42.59375 94.00390625 C48.19580273 100.35715715 54.13678055 105.8586549 60.76171875 111.13671875 C61.50035156 111.75160156 62.23898437 112.36648437 63 113 C63 113.33 63 113.66 63 114 C-21.15 114 -105.3 114 -192 114 C-189.05559696 111.05559696 -186.47514678 109.3805704 -182.890625 107.3046875 C-182.29210724 106.95616226 -181.69358948 106.60763702 -181.07693481 106.24855042 C-179.79911484 105.50512626 -178.52007492 104.76379568 -177.2399292 104.02438354 C-174.56308561 102.47823809 -171.89207722 100.92214059 -169.22067261 99.36662292 C-167.90712162 98.60193652 -166.59326088 97.83778194 -165.27908325 97.07417297 C-160.9566688 94.56207894 -156.65520064 92.02072698 -152.375 89.4375 C-145.6870302 85.40299386 -138.97064511 81.41730173 -132.25 77.4375 C-131.67167419 77.09500214 -131.09334839 76.75250427 -130.49749756 76.39962769 C-127.52125902 74.63711148 -124.54485077 72.87488212 -121.56835938 71.11279297 C-116.99445676 68.40487218 -112.42176946 65.69490135 -107.84912109 62.98486328 C-105.60734395 61.6562696 -103.36548128 60.32782022 -101.12353516 58.99951172 C-95.52120055 55.68017903 -89.91980053 52.35928896 -84.3203125 49.03515625 C-72.48310337 42.01037537 -60.62927261 35.01581406 -48.75 28.0625 C-37.50115424 21.47695023 -26.26352304 14.88043842 -15.1796875 8.01953125 C-14.35106201 7.50825684 -13.52243652 6.99698242 -12.66870117 6.47021484 C-11.04652298 5.46814511 -9.42678056 4.46211869 -7.80981445 3.45166016 C-7.08238037 3.00226074 -6.35494629 2.55286133 -5.60546875 2.08984375 C-4.95731201 1.68628662 -4.30915527 1.28272949 -3.64135742 0.86694336 C-2 0 -2 0 0 0 Z " fill="#FEFEFE" transform="translate(222,33)"/>
<path d="M0 0 C8.38659572 4.49339023 16.61586859 9.23433243 24.8125 14.0625 C26.10214061 14.8204366 27.39185531 15.57824717 28.68164062 16.3359375 C36.99978558 21.22462733 45.30761169 26.13077475 53.6105957 31.04516602 C61.22801787 35.55127616 68.86289416 40.02737518 76.5 44.5 C85.8855038 49.99656351 95.26087451 55.50965396 104.61987305 61.05126953 C109.71428716 64.06539088 114.81605063 67.06660872 119.92578125 70.0546875 C120.82676041 70.58162201 120.82676041 70.58162201 121.74594116 71.11920166 C122.35313995 71.47431824 122.96033875 71.82943481 123.5859375 72.1953125 C134.94060595 78.83627203 146.25715197 85.53313008 157.52416992 92.32226562 C165.0607566 96.85587617 172.63423218 101.32315024 180.22573853 105.7638855 C182.09845851 106.85947258 183.97059112 107.95605625 185.8425293 109.05297852 C190.94694799 112.04365421 196.05311287 115.03110806 201.16796875 118.00390625 C202.54974133 118.81465752 203.93128088 119.6258062 205.3125 120.4375 C206.44300781 121.09621094 207.57351562 121.75492187 208.73828125 122.43359375 C209.48464844 122.95050781 210.23101562 123.46742188 211 124 C211 124.66 211 125.32 211 126 C174.41405816 142.40448239 134.64062901 147.02304373 96.35546875 133.03369141 C56.79954772 117.71364312 27.24866392 89.44114007 10.03125 50.6328125 C3.28389846 34.7242089 -0.27007586 17.28485504 0 0 Z " fill="#FDFDFD" transform="translate(11,158)"/>
<path d="M0 0 C2.24439356 0.00315599 4.48745777 -0.0203886 6.73168945 -0.0456543 C26.07578769 -0.12982179 51.37995838 3.21101142 66.94458008 15.31567383 C66.20747803 15.74686523 65.47037598 16.17805664 64.7109375 16.62231445 C50.16420777 25.13440408 35.63370893 33.67199935 21.14160156 42.27685547 C12.67673882 47.29905587 4.18948983 52.2820248 -4.30541992 57.25317383 C-12.69073135 62.16054926 -21.060269 67.09015315 -29.37963867 72.10864258 C-34.00474336 74.89352679 -38.65608082 77.63401195 -43.30541992 80.37817383 C-51.6224644 85.2871986 -59.9350292 90.20367101 -68.24291992 95.12817383 C-69.37503906 95.79921143 -70.5071582 96.47024902 -71.67358398 97.16162109 C-73.98237137 98.53013998 -76.29112071 99.89872302 -78.59985352 101.26733398 C-85.36112308 105.2753092 -92.12311751 109.2820617 -98.88525391 113.28857422 C-104.13440366 116.39879802 -109.383147 119.50969773 -114.63037109 122.62316895 C-117.09537254 124.0857322 -119.56061663 125.54788621 -122.02587891 127.01000977 C-123.7553631 128.03597899 -125.48449831 129.06253641 -127.21362305 130.08911133 C-132.47106108 133.20700624 -137.73523384 136.30596856 -143.05541992 139.31567383 C-144.5709532 106.53525029 -129.14620845 73.37752258 -107.64404297 49.23510742 C-79.50636477 18.45516125 -42.00202761 -0.12290612 0 0 Z " fill="#FDFDFD" transform="translate(154.055419921875,6.684326171875)"/>
<path d="M0 0 C10.35849558 3.60377533 19.16907969 12.59622079 27 20 C27.74894531 20.69609375 28.49789063 21.3921875 29.26953125 22.109375 C52.41910348 44.32647759 69.10570529 77.81022065 70.09765625 110.1875 C70.08605469 111.115625 70.07445312 112.04375 70.0625 113 C70.05347656 113.94875 70.04445313 114.8975 70.03515625 115.875 C70.02355469 116.57625 70.01195312 117.2775 70 118 C40.53757396 104.59529432 19.19290615 70.110122 8 41 C3.13592048 27.96659545 -0.34908156 13.98163501 0 0 Z " fill="#FCFCFC" transform="translate(232,28)"/>
<path d="M0 0 C-1.78184371 32.44184415 -13.77248263 63.37332997 -35 88 C-35.43876465 88.51175781 -35.8775293 89.02351563 -36.32958984 89.55078125 C-43.60144263 97.96081346 -51.32680346 104.89055956 -60.3125 111.375 C-60.92383789 111.81658447 -61.53517578 112.25816895 -62.16503906 112.71313477 C-64.76221041 114.5536981 -66.96195193 115.98731731 -70 117 C-68.5552057 79.50758802 -48.4791416 45.38911095 -23 19 C-22.31421875 18.27425781 -21.6284375 17.54851562 -20.921875 16.80078125 C-4.68222004 0 -4.68222004 0 0 0 Z " fill="#FBFBFB" transform="translate(303,160)"/>
</svg>
