<svg xmlns="http://www.w3.org/2000/svg" xmlns:xlink="http://www.w3.org/1999/xlink" width="1200" zoomAndPan="magnify" viewBox="0 0 900 899.99999" height="1200" preserveAspectRatio="xMidYMid meet" version="1.0"><defs><clipPath id="66a0b20305"><path d="M 91 91 L 809 91 L 809 809 L 91 809 Z M 91 91 " clip-rule="nonzero"/></clipPath><clipPath id="1985cc4336"><path d="M 93.765625 90 L 810.007812 93.765625 L 806.238281 810.007812 L 90 806.238281 Z M 93.765625 90 " clip-rule="nonzero"/></clipPath><clipPath id="81a8835afe"><path d="M 93.765625 90 L 809.996094 93.765625 L 806.226562 809.996094 L 90 806.226562 Z M 93.765625 90 " clip-rule="nonzero"/></clipPath><clipPath id="bb19c4aef4"><path d="M 451.878906 91.882812 C 254.097656 90.84375 92.921875 250.332031 91.882812 448.113281 C 90.84375 645.894531 250.332031 807.070312 448.113281 808.113281 C 645.894531 809.152344 807.070312 649.660156 808.113281 451.878906 C 809.152344 254.097656 649.660156 92.921875 451.878906 91.882812 Z M 451.878906 91.882812 " clip-rule="nonzero"/></clipPath></defs><g clip-path="url(#66a0b20305)"><g clip-path="url(#1985cc4336)"><g clip-path="url(#81a8835afe)"><g clip-path="url(#bb19c4aef4)"><path stroke-linecap="butt" transform="matrix(0.74999, 0.00394363, -0.00394363, 0.74999, 93.766113, 90.00003)" fill="none" stroke-linejoin="miter" d="M 477.490348 -0.00034697 C 213.778361 0.000878075 -0.00156576 213.778977 -0.000340715 477.490963 C 0.00088433 741.202949 213.778983 954.982876 477.490997 954.98686 C 741.202983 954.985635 954.982883 741.202328 954.986866 477.490314 C 954.985641 213.778328 741.202334 -0.00157201 477.490348 -0.00034697 Z M 477.490348 -0.00034697 " stroke="#ffffff" stroke-width="80" stroke-opacity="1" stroke-miterlimit="4"/></g></g></g></g><path stroke-linecap="round" transform="matrix(0.649118, -0.375693, 0.375693, 0.649118, 110.133376, 433.324533)" fill="none" stroke-linejoin="miter" d="M 22.499757 22.49981 L 738.603277 22.500014 " stroke="#ffffff" stroke-width="45" stroke-opacity="1" stroke-miterlimit="4"/><path stroke-linecap="round" transform="matrix(0.75, 0, 0, 0.75, 118.587068, 431.056893)" fill="none" stroke-linejoin="miter" d="M 22.498494 22.502268 L 858.321454 22.502268 " stroke="#ffffff" stroke-width="45" stroke-opacity="1" stroke-miterlimit="4"/><path stroke-linecap="round" transform="matrix(0.647535, 0.378416, -0.378416, 0.647535, 127.100741, 433.364901)" fill="none" stroke-linejoin="miter" d="M 22.500659 22.500278 L 740.463141 22.49921 " stroke="#ffffff" stroke-width="45" stroke-opacity="1" stroke-miterlimit="4"/><path stroke-linecap="round" transform="matrix(0.374792, -0.649639, 0.649639, 0.374792, 553.217208, 711.929167)" fill="none" stroke-linejoin="miter" d="M 30.939493 74.391372 C 165.851896 5.185884 300.762216 5.202717 435.674964 74.439269 " stroke="#ffffff" stroke-width="45" stroke-opacity="1" stroke-miterlimit="4"/><path stroke-linecap="round" transform="matrix(-0.377512, -0.648062, 0.648062, -0.377512, 730.643583, 485.370043)" fill="none" stroke-linejoin="miter" d="M 30.645139 70.895747 C 164.357711 6.354734 298.071027 6.369587 431.785087 70.940307 " stroke="#ffffff" stroke-width="45" stroke-opacity="1" stroke-miterlimit="4"/></svg>