<?xml version="1.0" encoding="UTF-8"?>
<svg version="1.1" xmlns="http://www.w3.org/2000/svg" width="827" height="213">
<path d="M0 0 C272.91 0 545.82 0 827 0 C827 70.29 827 140.58 827 213 C554.09 213 281.18 213 0 213 C0 142.71 0 72.42 0 0 Z " fill="none" transform="translate(0,0)"/>
<path d="M0 0 C5.69333333 3.38666667 5.69333333 3.38666667 7 6 C7.53118252 10.91996928 7.75105553 14.77327597 5.125 19.0625 C2.12453295 21.79821996 0.49335701 22.12493254 -3.46484375 22.2109375 C-4.34720703 22.23929688 -5.22957031 22.26765625 -6.13867188 22.296875 C-8.00045209 22.34884374 -9.86246242 22.39314923 -11.72460938 22.4296875 C-13.05008789 22.47609375 -13.05008789 22.47609375 -14.40234375 22.5234375 C-15.21179443 22.54325684 -16.02124512 22.56307617 -16.85522461 22.58349609 C-19.5141378 23.09984281 -20.42630876 23.81409109 -22 26 C-22.2503577 29.62535976 -22.2503577 29.62535976 -22 33 C-20.04707031 33.05607422 -20.04707031 33.05607422 -18.0546875 33.11328125 C-16.32809743 33.17896674 -14.60153619 33.24541318 -12.875 33.3125 C-11.59109375 33.34633789 -11.59109375 33.34633789 -10.28125 33.38085938 C-5.18308093 33.59655114 -1.37361898 34.10247742 3 37 C5.84260101 41.83242172 7.00345141 46.48641214 6 52 C4.65211371 55.28428632 3.2907671 58.35461645 0 60 C-1.41453667 60.04847378 -2.83143944 60.03709716 -4.24609375 59.9921875 C-5.08333984 59.97542969 -5.92058594 59.95867187 -6.78320312 59.94140625 C-8.5490436 59.89722775 -10.3147051 59.84517632 -12.08007812 59.78515625 C-12.91861328 59.77097656 -13.75714844 59.75679687 -14.62109375 59.7421875 C-15.77242798 59.70907471 -15.77242798 59.70907471 -16.94702148 59.67529297 C-19.56054523 60.088658 -20.40372186 60.92950337 -22 63 C-22.75021244 65.45632332 -22.75021244 65.45632332 -22 68 C-17.65551188 71.4755905 -14.05584372 73.0874346 -8.54296875 73.2109375 C-7.67736328 73.23929687 -6.81175781 73.26765625 -5.91992188 73.296875 C-4.11022424 73.34861761 -2.30029956 73.39298813 -0.49023438 73.4296875 C4.69869894 73.61431967 8.54418004 74.04810671 13 77 C16.13821373 81.7073206 15.66894288 86.49515754 15 92 C13.36979302 96.58495714 11.41400329 99.14035027 7.25 101.671875 C1.20926739 104.05701965 -5.53848745 103.58693668 -11.9375 103.6875 C-13.33912841 103.71755687 -14.74074012 103.74840249 -16.14233398 103.7800293 C-18.87443049 103.83915886 -21.60647671 103.88930257 -24.33886719 103.93261719 C-27.35620487 103.98815101 -30.36747893 104.0773678 -33.3828125 104.1953125 C-34.7760108 104.23546098 -36.16923716 104.27465744 -37.5625 104.3125 C-38.69816406 104.34988281 -39.83382812 104.38726562 -41.00390625 104.42578125 C-44.86005175 103.87777622 -46.98138514 102.41489189 -50 100 C-54.73212675 92.27085965 -53.11318586 83.64577653 -52.54296875 74.9453125 C-52.05123932 66.98374403 -51.77991418 59.01943043 -51.53515625 51.046875 C-51.49633331 49.80851898 -51.45751038 48.57016296 -51.41751099 47.29428101 C-51.25642465 42.12845889 -51.09687108 36.96264762 -50.95043945 31.79638672 C-50.84112064 27.98374493 -50.72034113 24.17160693 -50.59765625 20.359375 C-50.56736832 19.19170593 -50.53708038 18.02403687 -50.50587463 16.82098389 C-50.46921188 15.73504944 -50.43254913 14.64911499 -50.39477539 13.53027344 C-50.36670303 12.5800531 -50.33863068 11.62983276 -50.30970764 10.65081787 C-49.89469668 7.09869864 -49.02450806 4.13009803 -46.59765625 1.453125 C-35.51338905 -7.23378161 -12.79280997 -4.42955177 0 0 Z " fill="#FCFCFC" transform="translate(262,57)"/>
<path d="M0 0 C0.77408203 0.14010498 1.54816406 0.28020996 2.34570312 0.42456055 C7.89423406 1.66285134 10.25373184 3.61127811 13.375 8.375 C14.08390134 12.78594166 13.71111111 14.76072797 11.5625 18.6875 C9.35854567 21.39521532 7.81890788 23.20179729 4.24609375 23.63037109 C3.44300781 23.63633301 2.63992188 23.64229492 1.8125 23.6484375 C0.93335938 23.6690625 0.05421875 23.6896875 -0.8515625 23.7109375 C-2.70042732 23.73697785 -4.54941865 23.75520799 -6.3984375 23.765625 C-7.71714844 23.80042969 -7.71714844 23.80042969 -9.0625 23.8359375 C-10.26712891 23.84826416 -10.26712891 23.84826416 -11.49609375 23.86083984 C-13.79159519 24.21381991 -13.79159519 24.21381991 -15.42578125 26.24072266 C-16.88315316 28.36091654 -16.88315316 28.36091654 -16.375 31.0625 C-15.83879042 33.31269969 -15.83879042 33.31269969 -14.625 34.375 C-13.26867062 34.48318608 -11.90736411 34.53070609 -10.546875 34.55078125 C-9.29970703 34.58655273 -9.29970703 34.58655273 -8.02734375 34.62304688 C-6.27497832 34.66563013 -4.52230319 34.69708805 -2.76953125 34.71679688 C2.52455229 34.89217869 5.57210856 35.32890039 9.375 39.375 C12.3529412 43.84191181 11.86896212 48.13600787 11.375 53.375 C9.84196367 57.5360986 9.06596643 58.91435571 5.375 61.375 C3.44555664 61.53857422 3.44555664 61.53857422 1.28515625 61.4296875 C0.50076172 61.40519531 -0.28363281 61.38070312 -1.09179688 61.35546875 C-2.73538534 61.28530766 -4.37865489 61.20721507 -6.02148438 61.12109375 C-10.93111975 60.93854919 -10.93111975 60.93854919 -15.171875 63.2265625 C-16.80663512 65.29387352 -16.80663512 65.29387352 -16.9375 67.875 C-15.14666522 71.28611386 -13.35999239 72.17490616 -9.83203125 73.60546875 C-4.76307946 74.82177022 0.34627134 74.91293807 5.54638672 74.95996094 C10.55016053 75.05147478 14.05608049 75.55542889 18.375 78.375 C21.63083348 83.25875022 20.94375317 88.66640335 20.375 94.375 C18.2402733 98.9607092 15.89655362 101.17219183 11.375 103.375 C8.0328582 104.48904727 5.34963926 104.58270279 1.828125 104.69140625 C1.17986755 104.71218735 0.53161011 104.73296844 -0.1362915 104.75437927 C-1.51478635 104.79762354 -2.8933517 104.83866797 -4.27197266 104.87768555 C-6.32604101 104.9361075 -8.37978189 105.00158691 -10.43359375 105.06835938 C-14.49695457 105.19578045 -18.56049678 105.29253656 -22.625 105.375 C-23.32047943 105.39032776 -24.01595886 105.40565552 -24.73251343 105.42144775 C-26.77871268 105.46226183 -28.82461893 105.48926205 -30.87109375 105.51171875 C-32.06661865 105.52807373 -33.26214355 105.54442871 -34.49389648 105.5612793 C-39.00503123 105.29289756 -41.17727801 104.26146492 -44.625 101.375 C-46.55176831 98.31887595 -46.87079074 95.99257583 -46.84887695 92.41088867 C-46.84671677 91.41438797 -46.84455658 90.41788727 -46.84233093 89.39118958 C-46.82861954 88.3069017 -46.81490814 87.22261383 -46.80078125 86.10546875 C-46.79299149 84.96272995 -46.78520172 83.81999115 -46.7771759 82.6426239 C-46.66084809 69.67046413 -46.3405946 56.70208724 -45.93530273 43.73608398 C-45.82902605 40.3120048 -45.73975539 36.88767883 -45.65369701 33.46304035 C-45.56633403 30.13773382 -45.45955759 26.81310561 -45.35546875 23.48828125 C-45.32720505 22.27167313 -45.29894135 21.055065 -45.26982117 19.80158997 C-45.00933222 12.36396676 -44.77913279 6.37142615 -39.125 1 C-29.21960892 -5.4385042 -11.02921338 -2.17238769 0 0 Z " fill="#FCFCFC" transform="translate(412.625,55.625)"/>
<path d="M0 0 C0.92192139 0.01506592 1.84384277 0.03013184 2.79370117 0.0456543 C28.19265825 0.65653483 28.19265825 0.65653483 36 7 C37.58491344 10.76416943 37.53807463 14.35737609 37 18.375 C35.37599816 22.00967079 34.33886956 23.14908696 31 25.375 C28.76342773 25.64624023 28.76342773 25.64624023 26.18359375 25.68359375 C25.25482422 25.70873047 24.32605469 25.73386719 23.36914062 25.75976562 C21.41087476 25.79499093 19.45253314 25.82622548 17.49414062 25.85351562 C16.56666016 25.87994141 15.63917969 25.90636719 14.68359375 25.93359375 C13.40826782 25.95377563 13.40826782 25.95377563 12.10717773 25.97436523 C11.41180908 26.10657471 10.71644043 26.23878418 10 26.375 C7.70595156 29.81607266 7.73706944 31.34339809 8 35.375 C9.52756218 36.90256218 10.95084705 36.5367075 13.078125 36.5859375 C14.32529297 36.62847656 14.32529297 36.62847656 15.59765625 36.671875 C17.35005944 36.72349218 19.10269159 36.76789757 20.85546875 36.8046875 C25.66967162 36.98271657 29.12405428 37.20513741 33 40.375 C35.40535341 43.98303011 35.35972946 45.89182156 35.4375 50.1875 C35.49744141 51.99154297 35.49744141 51.99154297 35.55859375 53.83203125 C34.99845786 57.38478127 34.18742626 59.62451153 31.70043945 62.27856445 C28.24331137 64.50770476 24.32588222 63.85881617 20.375 63.5625 C18.67524736 63.45913666 16.9746441 63.36872561 15.2734375 63.29296875 C14.52497559 63.23906982 13.77651367 63.1851709 13.00537109 63.12963867 C10.90180387 63.21220992 10.90180387 63.21220992 9.26806641 64.7277832 C7.82357756 66.36778126 7.82357756 66.36778126 7.4375 68.8125 C7.78727079 71.68818359 7.78727079 71.68818359 10.8125 73.625 C14.57482361 75.69058943 17.2715268 76.49214504 21.4921875 76.5859375 C22.36230469 76.61429687 23.23242188 76.64265625 24.12890625 76.671875 C25.95162293 76.72373038 27.77456981 76.76806883 29.59765625 76.8046875 C35.63845666 77.018837 39.21446018 77.87761947 43.8125 82 C46.0664758 86.50795161 45.59667941 91.02580936 44.37890625 95.8203125 C42.52134767 100.82333693 40.67912716 103.25420612 35.62695312 105.58276367 C29.91980866 107.30392387 23.91537883 107.06862632 18 107.125 C16.60292258 107.15001224 15.20586748 107.17630304 13.80883789 107.20385742 C11.08759811 107.25445319 8.36656033 107.29370011 5.64501953 107.32373047 C2.63346139 107.36608996 -0.3696661 107.44812879 -3.37890625 107.56640625 C-4.77341212 107.60763833 -6.16794089 107.64810958 -7.5625 107.6875 C-8.69816406 107.72488281 -9.83382812 107.76226562 -11.00390625 107.80078125 C-15.81172429 107.11753201 -18.95335756 104.73563517 -21.875 100.9375 C-25.12744618 90.6380871 -22.84775124 77.90985961 -22.44921875 67.12890625 C-22.41986551 66.33190748 -22.39051228 65.53490871 -22.36026955 64.71375847 C-22.20456635 60.51159435 -22.04509575 56.30959026 -21.88305664 52.10766602 C-21.7504464 48.64858516 -21.6258405 45.18935326 -21.50805664 41.72973633 C-21.3646723 37.51914652 -21.20777924 33.30926431 -21.04117775 29.09953117 C-20.98030162 27.50537158 -20.92410043 25.91102599 -20.87277794 24.31653023 C-20.80014132 22.09124433 -20.71010736 19.86728817 -20.6159668 17.64282227 C-20.56933395 16.38075455 -20.52270111 15.11868683 -20.47465515 13.81837463 C-19.73690183 8.46636049 -18.22790261 5.31785379 -13.9375 2.0234375 C-9.4072694 -0.26779548 -4.98074961 -0.14663952 0 0 Z " fill="#FCFCFC" transform="translate(542,53.625)"/>
<path d="M0 0 C10.91888594 4.23227614 15.60208592 15.64776254 20.375 25.5 C20.92027344 26.60859375 21.46554687 27.7171875 22.02734375 28.859375 C23.35898873 31.56938934 24.68296782 34.28286228 26 37 C25.98428955 36.30438965 25.9685791 35.6087793 25.95239258 34.89208984 C25.88977137 31.71981029 25.85092323 28.54766115 25.8125 25.375 C25.78736328 24.28058594 25.76222656 23.18617187 25.73632812 22.05859375 C25.66821718 14.56638982 26.65058008 10.27494897 31.0625 4.125 C34.72285532 1.47708338 37.10455237 1.13800171 41.55859375 1.41015625 C45.08726553 2.26268335 46.76957262 3.59646246 48.77832031 6.59692383 C53.57739915 16.03683849 52.34150432 29.08204992 52.31567383 39.41137695 C52.31250087 42.06177472 52.33610619 44.71106633 52.36132812 47.36132812 C52.41407357 61.36196844 51.34380367 75.68990637 41.625 86.6875 C37.84803226 88.57598387 36.03048459 88.22963937 32 87 C18.11535276 79.88411829 10.2033393 62.0160167 3 49 C2.01771054 53.40009216 1.04065196 57.80056729 0.10546875 62.2109375 C-4.91805486 85.3426384 -4.91805486 85.3426384 -13 91 C-15.5625 91.125 -15.5625 91.125 -18 90 C-22.30808057 85.4457434 -24.25703515 81.75951226 -24.23046875 75.50390625 C-24.22942139 74.40175781 -24.22837402 73.29960937 -24.22729492 72.1640625 C-24.2141626 70.97554688 -24.20103027 69.78703125 -24.1875 68.5625 C-24.17887939 67.33144531 -24.17025879 66.10039062 -24.16137695 64.83203125 C-24.12419896 60.88767077 -24.06541802 56.94396086 -24 53 C-23.98066406 51.69272949 -23.96132813 50.38545898 -23.94140625 49.03857422 C-23.87619628 45.19166528 -23.78681243 41.34616796 -23.6875 37.5 C-23.66518311 36.32767822 -23.64286621 35.15535645 -23.61987305 33.94750977 C-23.27262428 22.97899518 -21.98634269 10.76809143 -13.9375 2.625 C-9.55767185 -0.87701449 -5.3907966 -1.10862536 0 0 Z " fill="#FCFCFC" transform="translate(616,70)"/>
<path d="M0 0 C51.15 0 102.3 0 155 0 C152.49728609 2.50271391 149.99374779 5.00591118 147.421875 7.4375 C131.58898989 22.62225531 121.1773226 41.7117012 116.9375 63.25 C116.4734375 65.10625 116.4734375 65.10625 116 67 C113 68 113 68 110.98901367 67.12646484 C110.22306885 66.65934082 109.45712402 66.1922168 108.66796875 65.7109375 C107.79849609 65.18822266 106.92902344 64.66550781 106.03320312 64.12695312 C104.62458008 63.25973633 104.62458008 63.25973633 103.1875 62.375 C101.18115151 61.16379423 99.17463653 59.95286422 97.16796875 58.7421875 C96.14106934 58.11795898 95.11416992 57.49373047 94.05615234 56.85058594 C89.39400344 54.02752405 84.69682735 51.26483211 80 48.5 C78.16646869 47.41700178 76.333136 46.33366721 74.5 45.25 C73.5925 44.71375 72.685 44.1775 71.75 43.625 C61.66666667 37.66666667 51.58333333 31.70833333 41.5 25.75 C40.59096924 25.21294434 39.68193848 24.67588867 38.74536133 24.12255859 C36.92713957 23.04795639 35.10926361 21.97276885 33.29174805 20.89697266 C28.4800006 18.04995364 23.66122269 15.21578157 18.83203125 12.3984375 C17.82462891 11.80869141 16.81722656 11.21894531 15.77929688 10.61132812 C13.84398267 9.4786788 11.9065732 8.34959976 9.96679688 7.22460938 C8.66258789 6.45987305 8.66258789 6.45987305 7.33203125 5.6796875 C6.56608643 5.23351074 5.8001416 4.78733398 5.01098633 4.32763672 C3 3 3 3 0 0 Z " fill="#FDFDFD" transform="translate(26,111)"/>
<path d="M0 0 C0.11214844 0.98613281 0.11214844 0.98613281 0.2265625 1.9921875 C3.92977365 28.78600937 16.92535224 48.51226448 36 67 C36.66 67.66 37.32 68.32 38 69 C-13.15 69 -64.3 69 -117 69 C-113.91131576 66.68348682 -110.96174491 64.71902909 -107.65234375 62.76953125 C-106.58669189 62.14006592 -105.52104004 61.51060059 -104.4230957 60.86206055 C-103.2612388 60.17885952 -102.09937332 59.49567309 -100.9375 58.8125 C-99.7214501 58.0950591 -98.50555106 57.37736243 -97.28979492 56.65942383 C-94.76833122 55.17070868 -92.24622537 53.68309053 -89.72363281 52.19628906 C-84.0809763 48.86950399 -78.44695398 45.52815197 -72.8125 42.1875 C-71.71494385 41.53700684 -70.6173877 40.88651367 -69.48657227 40.21630859 C-66.60329692 38.50744002 -63.72014714 36.79836008 -60.83709717 35.08911133 C-59.5837442 34.34606902 -58.33036583 33.60306955 -57.07696533 32.86010742 C-53.02541454 30.45850208 -48.97431117 28.05614453 -44.92373657 25.65289307 C-43.56445313 24.84651137 -42.20505884 24.0403165 -40.84555054 23.23431396 C-33.70903614 19.00292454 -26.58197593 14.75733978 -19.484375 10.4609375 C-18.89637115 10.10558426 -18.30836731 9.75023102 -17.70254517 9.3841095 C-14.9440769 7.7170352 -12.18823672 6.04595332 -9.43701172 4.36694336 C-8.48068848 3.78823486 -7.52436523 3.20952637 -6.5390625 2.61328125 C-5.70584473 2.10579346 -4.87262695 1.59830566 -4.01416016 1.07543945 C-2 0 -2 0 0 0 Z " fill="#FCFCFC" transform="translate(141,36)"/>
<path d="M0 0 C3.07234194 2.35443289 5.1910585 4.25962716 5.9296875 8.18359375 C6.0546875 10.31640625 6.0546875 10.31640625 5.5546875 14.19140625 C2.94880847 16.63405348 0.34048017 17.74809901 -3.0078125 18.87890625 C-10.69580027 21.84459886 -18.81152833 26.52529385 -22.4453125 34.19140625 C-22.94964578 36.64501332 -22.94964578 36.64501332 -22.8828125 39.12890625 C-22.90214844 39.94230469 -22.92148437 40.75570312 -22.94140625 41.59375 C-21.75984244 47.78067862 -17.28129091 51.47193758 -12.5703125 55.25390625 C-11.56226563 56.06988281 -10.55421875 56.88585937 -9.515625 57.7265625 C-7.95781008 58.97717473 -6.39948092 60.22729728 -4.82666016 61.45898438 C1.15197256 66.24189055 4.05881363 71.18129582 5.00390625 78.82421875 C5.2591975 87.53933396 4.67571866 95.48037931 -1.24609375 102.25 C-10.24534174 110.65512288 -20.08510817 111.58149545 -31.9375 111.40625 C-42.71816582 111.03648281 -52.55937653 108.89340672 -60.4453125 101.25390625 C-61.8665889 98.32252368 -61.90536978 96.4118072 -61.4453125 93.19140625 C-59.64537476 90.49149963 -58.3615395 88.64951975 -55.4453125 87.19140625 C-50.98183299 86.84620909 -46.76624629 86.74172666 -42.5078125 88.19140625 C-37.97197893 89.67249476 -33.15504369 90.06385253 -28.4453125 89.19140625 C-25.8407813 86.5980533 -25.46554417 85.55557637 -25.2578125 81.81640625 C-27.45426609 75.11144267 -33.66452726 72.6312179 -39.5078125 69.25390625 C-47.69232585 64.41360266 -53.05657321 58.50094849 -56.03125 49.3984375 C-58.11262174 38.30433344 -56.7061976 27.066678 -50.6953125 17.50390625 C-40.3532567 3.14134465 -17.5270788 -10.79457428 0 0 Z " fill="#FCFCFC" transform="translate(804.4453125,49.80859375)"/>
<path d="M0 0 C3.52998942 3.11952553 6.32580605 5.77532474 7 10.62109375 C7.10953457 14.79025315 6.9055814 17.76409846 4.6875 21.375 C2.82739258 22.63598633 2.82739258 22.63598633 0.58203125 23.70703125 C-0.64676758 24.31708008 -0.64676758 24.31708008 -1.90039062 24.93945312 C-3.61301959 25.76166944 -5.3265414 26.58202899 -7.04101562 27.40039062 C-15.35087481 31.53261568 -21.49787854 36.89530752 -25.42578125 45.4296875 C-27.40833748 52.01491832 -27.76903082 59.51003238 -25.3203125 66.0078125 C-23.19333108 69.58801104 -20.85981722 72.14821692 -17.3125 74.375 C-14.87201626 74.98276392 -14.87201626 74.98276392 -12.3125 75.125 C-11.466875 75.20234375 -10.62125 75.2796875 -9.75 75.359375 C-7.39949397 75.37444235 -5.55032389 75.05877952 -3.3125 74.375 C-3.3125 72.725 -3.3125 71.075 -3.3125 69.375 C-4.240625 68.9625 -5.16875 68.55 -6.125 68.125 C-9.34717579 66.35596231 -10.49293813 65.47360683 -12.3125 62.375 C-13.13014202 57.0198131 -13.23476719 52.02190569 -10.5625 47.25 C-6.39604881 43.77795734 -3.15963671 42.93133678 2.1796875 43.0546875 C8.57056987 43.87096843 15.24265817 46.66869688 19.6875 51.375 C23.19660362 56.86726417 24.40657252 61.71809799 24.3125 68.1875 C24.30484619 68.97286133 24.29719238 69.75822266 24.28930664 70.56738281 C23.95741148 79.31358487 20.72875267 85.83874752 14.3125 91.8125 C4.27976778 99.46383644 -6.86503157 101.64894133 -19.3125 100.375 C-30.74715832 97.49706352 -39.8339009 91.81215325 -46.03125 81.70703125 C-52.78982402 69.40560231 -54.63244686 55.80073265 -50.87866211 42.14868164 C-45.17846597 23.79958424 -33.7136773 10.15551857 -17.3125 0.375 C-11.39381783 -2.39827473 -5.93822752 -2.91309274 0 0 Z " fill="#FBFBFB" transform="translate(490.3125,60.625)"/>
<path d="M0 0 C3.87940166 1.4382302 7.32135383 3.2505784 10.8828125 5.3515625 C11.44591629 5.68249908 12.00902008 6.01343567 12.58918762 6.35440063 C14.43646501 7.44123453 16.28074238 8.533051 18.125 9.625 C19.42374803 10.39057347 20.72266006 11.1558688 22.02172852 11.92089844 C26.0174098 14.27566573 30.00895357 16.63738849 34 19 C35.21563449 19.7191145 36.43129132 20.43819125 37.64697266 21.15722656 C44.40220424 25.153494 51.15309029 29.15706653 57.90283203 33.16259766 C62.55816228 35.92438352 67.21567381 38.68246135 71.875 41.4375 C72.73915527 41.94853271 73.60331055 42.45956543 74.49365234 42.98608398 C79.77365697 46.10477596 85.06188591 49.20912383 90.35546875 52.3046875 C90.99309143 52.67773514 91.63071411 53.05078278 92.28765869 53.43513489 C95.41250323 55.26327674 98.53816051 57.08999464 101.66552734 58.91381836 C105.11819876 60.92931365 108.558875 62.96485248 112 65 C112.92555695 65.53750885 112.92555695 65.53750885 113.86981201 66.08587646 C115.70977249 67.15515422 117.54098173 68.23819313 119.37109375 69.32421875 C120.45189209 69.95803467 121.53269043 70.59185059 122.64624023 71.24487305 C123.42298096 71.82406494 124.19972168 72.40325684 125 73 C125 73.99 125 74.98 125 76 C103.83495526 85.77648258 79.86380588 87.33323912 57.828125 79.55859375 C34.4547946 70.84059216 16.97378265 54.41289834 6.28125 31.98828125 C2.52320578 23.22333055 -0.17958263 14.72577537 -0.0625 5.125 C-0.05347656 4.15820312 -0.04445313 3.19140625 -0.03515625 2.1953125 C-0.02355469 1.47085938 -0.01195312 0.74640625 0 0 Z " fill="#FCFCFC" transform="translate(14,112)"/>
<path d="M0 0 C2.04303104 0.0031461 4.08458994 -0.02030936 6.12744141 -0.0456543 C18.33113508 -0.1049036 28.67352393 2.46149305 39.81103516 7.31567383 C39.81103516 8.30567383 39.81103516 9.29567383 39.81103516 10.31567383 C39.10197021 10.72293701 38.39290527 11.1302002 37.66235352 11.54980469 C20.93755977 21.13655379 20.93755977 21.13655379 4.35791016 30.97070312 C-0.99067191 34.2051295 -6.36869125 37.38851087 -11.75146484 40.56567383 C-13.15380371 41.39349365 -13.15380371 41.39349365 -14.58447266 42.23803711 C-16.49829404 43.36756442 -18.41219446 44.49695782 -20.32617188 45.6262207 C-24.94833591 48.35395182 -29.56860054 51.08489571 -34.18896484 53.81567383 C-39.77000058 57.11423845 -45.35152368 60.41196595 -50.93505859 63.70629883 C-51.88026367 64.26422119 -52.82546875 64.82214355 -53.79931641 65.39697266 C-55.66168112 66.49621815 -57.52430498 67.59502475 -59.38720703 68.69335938 C-63.54976959 71.15075305 -67.70386527 73.6196723 -71.83349609 76.13208008 C-72.5335376 76.55714844 -73.2335791 76.9822168 -73.95483398 77.42016602 C-75.23899498 78.20200785 -76.52089677 78.98757767 -77.80004883 79.77758789 C-81.96881272 82.31567383 -81.96881272 82.31567383 -84.18896484 82.31567383 C-85.46621609 65.250178 -78.57581285 48.04401613 -68.06396484 34.75317383 C-66.78229145 33.26533979 -65.49157365 31.78521359 -64.18896484 30.31567383 C-63.69912109 29.69563477 -63.20927734 29.0755957 -62.70458984 28.43676758 C-52.46100813 15.57474222 -36.60841957 7.27604704 -21.18896484 2.31567383 C-20.05716797 1.94829102 -18.92537109 1.5809082 -17.75927734 1.20239258 C-11.93460579 -0.19940709 -5.95831089 -0.01913804 0 0 Z " fill="#FCFCFC" transform="translate(98.18896484375,20.684326171875)"/>
<path d="M0 0 C14.4433068 8.60140019 19.36274254 29.04573278 24 44 C24.35832076 45.66147378 24.70002558 47.3270074 25 49 C25.20044922 48.44763672 25.40089844 47.89527344 25.60742188 47.32617188 C39.91519046 8.1663608 39.91519046 8.1663608 51 1 C55.06712474 0.39993241 57.47815251 0.09913625 61.0390625 2.20703125 C65.29388929 5.66517237 66.63877803 7.90897203 67.2734375 13.33984375 C68.17233506 36.33087753 47.91779253 61.92873449 33.58862305 78.38647461 C30.41252253 81.61236185 27.36355832 82.83303368 22.9375 83.375 C18.72580649 82.837337 16.47834686 81.6647287 13.63671875 78.46484375 C9.36244013 72.66979754 6.80356238 66.12542398 4.10888672 59.50268555 C2.16371208 54.72484457 0.10903884 50.04823069 -2.15869141 45.41479492 C-7.84435079 33.79656688 -14.43702886 20.26149872 -12 7 C-9.25138197 1.46281309 -6.33562996 -1.07586169 0 0 Z " fill="#FCFCFC" transform="translate(294,78)"/>
<path d="M0 0 C0.83724609 -0.00128906 1.67449219 -0.00257812 2.53710938 -0.00390625 C3.41302734 -0.00003906 4.28894531 0.00382812 5.19140625 0.0078125 C6.06345703 0.00394531 6.93550781 0.00007813 7.83398438 -0.00390625 C8.67251953 -0.00261719 9.51105469 -0.00132813 10.375 0 C11.14255615 0.00112793 11.9101123 0.00225586 12.70092773 0.00341797 C14.75390625 0.1328125 14.75390625 0.1328125 17.75390625 1.1328125 C19.56674676 1.24751328 21.38304826 1.31101268 23.19921875 1.34375 C24.81570313 1.38628906 24.81570313 1.38628906 26.46484375 1.4296875 C28.71729324 1.48123097 30.96991837 1.52565616 33.22265625 1.5625 C49.21678449 2.01838964 49.21678449 2.01838964 54.81640625 7.8828125 C57.1138216 11.73654148 57.48911451 13.72156295 56.75390625 18.1328125 C54.26295124 21.54634344 51.69489114 22.80992572 47.75390625 24.1328125 C45.49094218 24.41402492 43.21759963 24.61986139 40.94140625 24.7578125 C39.19923828 24.86996094 39.19923828 24.86996094 37.421875 24.984375 C36.10123047 25.05785156 36.10123047 25.05785156 34.75390625 25.1328125 C34.87507812 25.94733887 34.99625 26.76186523 35.12109375 27.60107422 C42.2377392 76.11059309 42.2377392 76.11059309 33.81640625 89.7578125 C30.42181123 93.6667401 29.12888027 94.98003761 23.81640625 95.5703125 C20.86796263 95.43330304 19.63355487 95.0686251 16.94140625 93.6328125 C11.93110811 87.90675748 11.30270604 81.53874493 11.50390625 74.2578125 C11.5090625 73.51917969 11.51421875 72.78054687 11.51953125 72.01953125 C11.57286493 68.1728395 11.80804639 64.39325918 12.234375 60.5703125 C13.00238415 53.40546765 13.11388961 46.20583267 13.31640625 39.0078125 C13.35970781 37.55988628 13.40332531 36.11196948 13.44726562 34.6640625 C13.55311731 31.15374672 13.65470864 27.64332337 13.75390625 24.1328125 C12.34238281 24.18501953 12.34238281 24.18501953 10.90234375 24.23828125 C9.65710938 24.26535156 8.411875 24.29242188 7.12890625 24.3203125 C5.28425781 24.37251953 5.28425781 24.37251953 3.40234375 24.42578125 C-1.83476648 24.00524242 -5.04898253 22.45934114 -8.55859375 18.5703125 C-11.36023738 14.52349393 -11.74352096 12.10708458 -11.24609375 7.1328125 C-8.38292906 2.32525984 -5.57202222 0.00820018 0 0 Z " fill="#FAFAFA" transform="translate(684.24609375,65.8671875)"/>
<path d="M0 0 C4.51877463 1.46713462 7.77061035 3.99707201 11.3125 7.0625 C11.88572998 7.55637207 12.45895996 8.05024414 13.04956055 8.55908203 C29.63571097 23.07108676 39.80777451 42.20010114 43 64 C43.18093785 66.73015109 43.164129 69.26451666 43 72 C24.40080967 58.49580064 11.3519993 42.93789348 4 21 C3.65066406 20.00355469 3.30132812 19.00710937 2.94140625 17.98046875 C2.03565956 15.11289727 1.40007725 12.33376861 0.875 9.375 C0.70742187 8.45460938 0.53984375 7.53421875 0.3671875 6.5859375 C0 4 0 4 0 0 Z " fill="#F9F9F9" transform="translate(146,33)"/>
<path d="M0 0 C3.3570412 9.14504327 -2.54888919 22.93743611 -6.28125 31.40625 C-13.591888 46.69212945 -24.19490582 59.18252593 -38 69 C-39.485 69.495 -39.485 69.495 -41 70 C-38.88111294 44.57335523 -25.88491598 21.93259862 -7 5 C-4.71916239 3.22120634 -2.40914697 1.60609798 0 0 Z " fill="#F9F9F9" transform="translate(188,113)"/>
</svg>
