<svg xmlns="http://www.w3.org/2000/svg" xmlns:xlink="http://www.w3.org/1999/xlink" width="1200" zoomAndPan="magnify" viewBox="0 0 900 225" height="300" preserveAspectRatio="xMidYMid meet" version="1.0"><defs><g/><clipPath id="9798798015"><path d="M 79 15 L 274 15 L 274 210 L 79 210 Z M 79 15 " clip-rule="nonzero"/></clipPath><clipPath id="c91011bba0"><path d="M 80.261719 15.242188 L 273.761719 16.261719 L 272.742188 209.757812 L 79.246094 208.738281 Z M 80.261719 15.242188 " clip-rule="nonzero"/></clipPath><clipPath id="2d26248add"><path d="M 80.261719 15.242188 L 273.761719 16.261719 L 272.742188 209.757812 L 79.246094 208.738281 Z M 80.261719 15.242188 " clip-rule="nonzero"/></clipPath><clipPath id="ea3ef9d07d"><path d="M 177.011719 15.75 C 123.578125 15.46875 80.035156 58.558594 79.753906 111.992188 C 79.472656 165.425781 122.5625 208.96875 175.996094 209.25 C 229.425781 209.53125 272.972656 166.441406 273.253906 113.007812 C 273.53125 59.574219 230.445312 16.03125 177.011719 15.75 Z M 177.011719 15.75 " clip-rule="nonzero"/></clipPath></defs><g clip-path="url(#9798798015)"><g clip-path="url(#c91011bba0)"><g clip-path="url(#2d26248add)"><g clip-path="url(#ea3ef9d07d)"><path stroke-linecap="butt" transform="matrix(0.74999, 0.00394363, -0.00394363, 0.74999, 80.26348, 15.242619)" fill="none" stroke-linejoin="miter" d="M 128.999431 -0.00179213 C 57.75365 -0.0021699 -0.000743735 57.755438 -0.00112151 129.00122 C -0.00149929 200.247001 57.756109 258.001395 129.00189 258.001772 C 200.242464 258.002177 258.002065 200.244542 258.002443 128.99876 C 257.997612 57.753006 200.245213 -0.00141435 128.999431 -0.00179213 Z M 128.999431 -0.00179213 " stroke="#ffffff" stroke-width="24" stroke-opacity="1" stroke-miterlimit="4"/></g></g></g></g><path stroke-linecap="round" transform="matrix(0.649118, -0.375693, 0.375693, 0.649118, 84.714409, 108.044617)" fill="none" stroke-linejoin="miter" d="M 6.001053 5.998187 L 199.620267 6.003054 " stroke="#ffffff" stroke-width="12" stroke-opacity="1" stroke-miterlimit="4"/><path stroke-linecap="round" transform="matrix(0.75, 0, 0, 0.75, 86.969096, 107.441286)" fill="none" stroke-linejoin="miter" d="M 5.999538 6.000161 L 231.963089 6.000161 " stroke="#ffffff" stroke-width="12" stroke-opacity="1" stroke-miterlimit="4"/><path stroke-linecap="round" transform="matrix(0.647535, 0.378416, -0.378416, 0.647535, 89.238915, 108.058577)" fill="none" stroke-linejoin="miter" d="M 6.002493 5.999412 L 200.121497 5.998446 " stroke="#ffffff" stroke-width="12" stroke-opacity="1" stroke-miterlimit="4"/><path stroke-linecap="round" transform="matrix(0.374792, -0.649639, 0.649639, 0.374792, 204.456745, 183.264026)" fill="none" stroke-linejoin="miter" d="M 8.276559 20.040961 C 44.776775 1.304145 81.278898 1.32063 117.775816 20.088506 " stroke="#ffffff" stroke-width="12" stroke-opacity="1" stroke-miterlimit="4"/><path stroke-linecap="round" transform="matrix(-0.377512, -0.648062, 0.648062, -0.377512, 252.357469, 122.003993)" fill="none" stroke-linejoin="miter" d="M 8.169772 19.107682 C 44.36295 1.614544 80.562201 1.629049 116.753283 19.154957 " stroke="#ffffff" stroke-width="12" stroke-opacity="1" stroke-miterlimit="4"/><g fill="#ffffff" fill-opacity="1"><g transform="translate(317.163913, 144.000004)"><g><path d="M 19.921875 -0.234375 C 18.316406 -0.234375 16.59375 -0.171875 14.75 -0.046875 C 12.914062 0.0664062 11.140625 -0.0507812 9.421875 -0.40625 C 7.703125 -0.769531 6.160156 -1.59375 4.796875 -2.875 C 3.359375 -4.320312 2.476562 -6.046875 2.15625 -8.046875 C 1.84375 -10.046875 1.765625 -12.144531 1.921875 -14.34375 C 2.078125 -16.539062 2.195312 -18.519531 2.28125 -20.28125 C 2.4375 -23.71875 2.59375 -27.132812 2.75 -30.53125 C 2.914062 -33.9375 3.078125 -37.359375 3.234375 -40.796875 C 3.398438 -44.796875 3.582031 -48.816406 3.78125 -52.859375 C 3.976562 -56.898438 4.117188 -60.921875 4.203125 -64.921875 C 4.359375 -67.160156 4.351562 -69.640625 4.1875 -72.359375 C 4.03125 -75.078125 4.351562 -77.519531 5.15625 -79.6875 C 5.875 -81.6875 7.210938 -83.1875 9.171875 -84.1875 C 11.140625 -85.1875 13.441406 -85.820312 16.078125 -86.09375 C 18.722656 -86.375 21.460938 -86.414062 24.296875 -86.21875 C 27.140625 -86.019531 29.820312 -85.738281 32.34375 -85.375 C 34.863281 -85.019531 36.921875 -84.722656 38.515625 -84.484375 C 40.359375 -84.242188 42.117188 -83.882812 43.796875 -83.40625 C 45.472656 -82.925781 46.890625 -82.144531 48.046875 -81.0625 C 49.210938 -79.976562 49.914062 -78.359375 50.15625 -76.203125 C 50.476562 -73.960938 50.117188 -71.921875 49.078125 -70.078125 C 48.035156 -68.234375 46.476562 -66.875 44.40625 -66 C 42.800781 -65.363281 41.195312 -65.164062 39.59375 -65.40625 C 38 -65.644531 36.398438 -65.921875 34.796875 -66.234375 C 33.203125 -66.554688 31.644531 -66.519531 30.125 -66.125 C 29.164062 -65.957031 28.203125 -65.3125 27.234375 -64.1875 C 26.273438 -63.070312 25.734375 -61.832031 25.609375 -60.46875 C 25.492188 -59.113281 26.117188 -57.914062 27.484375 -56.875 C 28.523438 -56.15625 30.003906 -55.835938 31.921875 -55.921875 C 33.835938 -56.003906 35.816406 -56.125 37.859375 -56.28125 C 39.898438 -56.4375 41.5625 -56.273438 42.84375 -55.796875 C 44.914062 -54.992188 46.375 -53.953125 47.21875 -52.671875 C 48.0625 -51.398438 48.5625 -49.722656 48.71875 -47.640625 C 49.039062 -45.160156 48.800781 -42.660156 48 -40.140625 C 47.195312 -37.617188 45.476562 -35.957031 42.84375 -35.15625 C 41.238281 -34.757812 39.515625 -34.78125 37.671875 -35.21875 C 35.835938 -35.65625 34.039062 -35.972656 32.28125 -36.171875 C 30.519531 -36.378906 28.957031 -35.84375 27.59375 -34.5625 C 25.914062 -32.957031 25.21875 -31.535156 25.5 -30.296875 C 25.78125 -29.054688 26.640625 -27.992188 28.078125 -27.109375 C 29.515625 -26.234375 31.09375 -25.554688 32.8125 -25.078125 C 34.539062 -24.597656 35.960938 -24.316406 37.078125 -24.234375 C 38.753906 -24.160156 40.59375 -24.179688 42.59375 -24.296875 C 44.59375 -24.421875 46.550781 -24.378906 48.46875 -24.171875 C 50.394531 -23.972656 52.078125 -23.316406 53.515625 -22.203125 C 54.878906 -21.242188 55.738281 -19.882812 56.09375 -18.125 C 56.457031 -16.363281 56.519531 -14.582031 56.28125 -12.78125 C 56.039062 -10.976562 55.679688 -9.398438 55.203125 -8.046875 C 54.003906 -5.078125 52.285156 -3.171875 50.046875 -2.328125 C 47.804688 -1.492188 45.164062 -1 42.125 -0.84375 C 38.4375 -0.675781 34.753906 -0.570312 31.078125 -0.53125 C 27.398438 -0.5 23.679688 -0.398438 19.921875 -0.234375 Z M 19.921875 -0.234375 "/></g></g></g><g fill="#ffffff" fill-opacity="1"><g transform="translate(375.363939, 144.000004)"><g><path d="M 24.125 -2.765625 C 22.4375 -4.359375 21.03125 -6.234375 19.90625 -8.390625 C 18.789062 -10.554688 17.832031 -12.816406 17.03125 -15.171875 C 16.238281 -17.535156 15.363281 -19.71875 14.40625 -21.71875 C 13.84375 -22.914062 12.957031 -24.691406 11.75 -27.046875 C 10.550781 -29.410156 9.269531 -32.09375 7.90625 -35.09375 C 6.550781 -38.09375 5.332031 -41.191406 4.25 -44.390625 C 3.175781 -47.597656 2.414062 -50.679688 1.96875 -53.640625 C 1.53125 -56.597656 1.671875 -59.175781 2.390625 -61.375 C 3.117188 -63.582031 4.640625 -65.164062 6.953125 -66.125 C 9.117188 -67.082031 11.179688 -66.921875 13.140625 -65.640625 C 15.097656 -64.359375 16.9375 -62.378906 18.65625 -59.703125 C 20.375 -57.023438 21.972656 -54.003906 23.453125 -50.640625 C 24.941406 -47.273438 26.242188 -43.910156 27.359375 -40.546875 C 28.484375 -37.191406 29.441406 -34.191406 30.234375 -31.546875 C 31.035156 -28.910156 31.640625 -27.035156 32.046875 -25.921875 C 32.597656 -27.273438 33.351562 -29.375 34.3125 -32.21875 C 35.28125 -35.0625 36.398438 -38.222656 37.671875 -41.703125 C 38.953125 -45.179688 40.410156 -48.597656 42.046875 -51.953125 C 43.691406 -55.316406 45.472656 -58.257812 47.390625 -60.78125 C 49.316406 -63.300781 51.378906 -65 53.578125 -65.875 C 55.773438 -66.757812 58.113281 -66.398438 60.59375 -64.796875 C 63.320312 -63.035156 64.941406 -60.695312 65.453125 -57.78125 C 65.972656 -54.863281 65.734375 -51.582031 64.734375 -47.9375 C 63.734375 -44.300781 62.273438 -40.5625 60.359375 -36.71875 C 58.441406 -32.875 56.34375 -29.171875 54.0625 -25.609375 C 51.78125 -22.054688 49.640625 -18.859375 47.640625 -16.015625 C 45.640625 -13.179688 44.078125 -10.960938 42.953125 -9.359375 C 41.515625 -7.203125 39.816406 -5.203125 37.859375 -3.359375 C 35.898438 -1.515625 33.757812 -0.394531 31.4375 0 C 29.113281 0.394531 26.675781 -0.523438 24.125 -2.765625 Z M 24.125 -2.765625 "/></g></g></g><g fill="#ffffff" fill-opacity="1"><g transform="translate(442.803969, 144.000004)"><g><path d="M 19.921875 -0.234375 C 18.316406 -0.234375 16.59375 -0.171875 14.75 -0.046875 C 12.914062 0.0664062 11.140625 -0.0507812 9.421875 -0.40625 C 7.703125 -0.769531 6.160156 -1.59375 4.796875 -2.875 C 3.359375 -4.320312 2.476562 -6.046875 2.15625 -8.046875 C 1.84375 -10.046875 1.765625 -12.144531 1.921875 -14.34375 C 2.078125 -16.539062 2.195312 -18.519531 2.28125 -20.28125 C 2.4375 -23.71875 2.59375 -27.132812 2.75 -30.53125 C 2.914062 -33.9375 3.078125 -37.359375 3.234375 -40.796875 C 3.398438 -44.796875 3.582031 -48.816406 3.78125 -52.859375 C 3.976562 -56.898438 4.117188 -60.921875 4.203125 -64.921875 C 4.359375 -67.160156 4.351562 -69.640625 4.1875 -72.359375 C 4.03125 -75.078125 4.351562 -77.519531 5.15625 -79.6875 C 5.875 -81.6875 7.210938 -83.1875 9.171875 -84.1875 C 11.140625 -85.1875 13.441406 -85.820312 16.078125 -86.09375 C 18.722656 -86.375 21.460938 -86.414062 24.296875 -86.21875 C 27.140625 -86.019531 29.820312 -85.738281 32.34375 -85.375 C 34.863281 -85.019531 36.921875 -84.722656 38.515625 -84.484375 C 40.359375 -84.242188 42.117188 -83.882812 43.796875 -83.40625 C 45.472656 -82.925781 46.890625 -82.144531 48.046875 -81.0625 C 49.210938 -79.976562 49.914062 -78.359375 50.15625 -76.203125 C 50.476562 -73.960938 50.117188 -71.921875 49.078125 -70.078125 C 48.035156 -68.234375 46.476562 -66.875 44.40625 -66 C 42.800781 -65.363281 41.195312 -65.164062 39.59375 -65.40625 C 38 -65.644531 36.398438 -65.921875 34.796875 -66.234375 C 33.203125 -66.554688 31.644531 -66.519531 30.125 -66.125 C 29.164062 -65.957031 28.203125 -65.3125 27.234375 -64.1875 C 26.273438 -63.070312 25.734375 -61.832031 25.609375 -60.46875 C 25.492188 -59.113281 26.117188 -57.914062 27.484375 -56.875 C 28.523438 -56.15625 30.003906 -55.835938 31.921875 -55.921875 C 33.835938 -56.003906 35.816406 -56.125 37.859375 -56.28125 C 39.898438 -56.4375 41.5625 -56.273438 42.84375 -55.796875 C 44.914062 -54.992188 46.375 -53.953125 47.21875 -52.671875 C 48.0625 -51.398438 48.5625 -49.722656 48.71875 -47.640625 C 49.039062 -45.160156 48.800781 -42.660156 48 -40.140625 C 47.195312 -37.617188 45.476562 -35.957031 42.84375 -35.15625 C 41.238281 -34.757812 39.515625 -34.78125 37.671875 -35.21875 C 35.835938 -35.65625 34.039062 -35.972656 32.28125 -36.171875 C 30.519531 -36.378906 28.957031 -35.84375 27.59375 -34.5625 C 25.914062 -32.957031 25.21875 -31.535156 25.5 -30.296875 C 25.78125 -29.054688 26.640625 -27.992188 28.078125 -27.109375 C 29.515625 -26.234375 31.09375 -25.554688 32.8125 -25.078125 C 34.539062 -24.597656 35.960938 -24.316406 37.078125 -24.234375 C 38.753906 -24.160156 40.59375 -24.179688 42.59375 -24.296875 C 44.59375 -24.421875 46.550781 -24.378906 48.46875 -24.171875 C 50.394531 -23.972656 52.078125 -23.316406 53.515625 -22.203125 C 54.878906 -21.242188 55.738281 -19.882812 56.09375 -18.125 C 56.457031 -16.363281 56.519531 -14.582031 56.28125 -12.78125 C 56.039062 -10.976562 55.679688 -9.398438 55.203125 -8.046875 C 54.003906 -5.078125 52.285156 -3.171875 50.046875 -2.328125 C 47.804688 -1.492188 45.164062 -1 42.125 -0.84375 C 38.4375 -0.675781 34.753906 -0.570312 31.078125 -0.53125 C 27.398438 -0.5 23.679688 -0.398438 19.921875 -0.234375 Z M 19.921875 -0.234375 "/></g></g></g><g fill="#dfdfdf" fill-opacity="1"><g transform="translate(501.007656, 144.000004)"><g><path d="M 11.515625 -9.484375 C 7.835938 -13.242188 5.238281 -17.484375 3.71875 -22.203125 C 2.195312 -26.921875 1.597656 -31.835938 1.921875 -36.953125 C 2.242188 -42.078125 3.320312 -47.039062 5.15625 -51.84375 C 7 -56.644531 9.398438 -60.960938 12.359375 -64.796875 C 13.484375 -66.316406 15.023438 -68.078125 16.984375 -70.078125 C 18.941406 -72.078125 21.117188 -73.992188 23.515625 -75.828125 C 25.921875 -77.671875 28.421875 -79.171875 31.015625 -80.328125 C 33.617188 -81.492188 36.117188 -82.054688 38.515625 -82.015625 C 40.921875 -81.972656 43.125 -80.992188 45.125 -79.078125 C 47.363281 -76.921875 48.742188 -74.582031 49.265625 -72.0625 C 49.785156 -69.539062 49.460938 -67.257812 48.296875 -65.21875 C 47.140625 -63.175781 45.160156 -61.71875 42.359375 -60.84375 C 38.753906 -59.800781 35.410156 -58.117188 32.328125 -55.796875 C 29.253906 -53.472656 26.753906 -50.671875 24.828125 -47.390625 C 22.910156 -44.117188 21.832031 -40.484375 21.59375 -36.484375 C 21.519531 -33.441406 22.101562 -30.457031 23.34375 -27.53125 C 24.582031 -24.613281 26.601562 -22.4375 29.40625 -21 C 30.4375 -20.519531 31.753906 -20.140625 33.359375 -19.859375 C 34.960938 -19.578125 36.539062 -19.554688 38.09375 -19.796875 C 39.65625 -20.035156 40.796875 -20.753906 41.515625 -21.953125 C 42.234375 -23.160156 42.453125 -24.039062 42.171875 -24.59375 C 41.898438 -25.15625 41.363281 -25.578125 40.5625 -25.859375 C 39.757812 -26.140625 38.894531 -26.421875 37.96875 -26.703125 C 37.050781 -26.984375 36.316406 -27.441406 35.765625 -28.078125 C 34.484375 -29.441406 33.78125 -31.421875 33.65625 -34.015625 C 33.539062 -36.617188 33.882812 -38.757812 34.6875 -40.4375 C 35.71875 -42.601562 37.234375 -44.082031 39.234375 -44.875 C 41.234375 -45.675781 43.410156 -45.957031 45.765625 -45.71875 C 48.128906 -45.476562 50.453125 -44.816406 52.734375 -43.734375 C 55.015625 -42.660156 56.992188 -41.300781 58.671875 -39.65625 C 60.359375 -38.019531 61.484375 -36.238281 62.046875 -34.3125 C 63.484375 -29.113281 63.738281 -24.4375 62.8125 -20.28125 C 61.894531 -16.125 60.097656 -12.546875 57.421875 -9.546875 C 54.742188 -6.546875 51.503906 -4.222656 47.703125 -2.578125 C 43.898438 -0.941406 39.859375 -0.0664062 35.578125 0.046875 C 31.296875 0.171875 27.078125 -0.539062 22.921875 -2.09375 C 18.765625 -3.65625 14.960938 -6.117188 11.515625 -9.484375 Z M 11.515625 -9.484375 "/></g></g></g><g fill="#dfdfdf" fill-opacity="1"><g transform="translate(566.167691, 144.000004)"><g><path d="M 19.921875 -0.234375 C 18.316406 -0.234375 16.59375 -0.171875 14.75 -0.046875 C 12.914062 0.0664062 11.140625 -0.0507812 9.421875 -0.40625 C 7.703125 -0.769531 6.160156 -1.59375 4.796875 -2.875 C 3.359375 -4.320312 2.476562 -6.046875 2.15625 -8.046875 C 1.84375 -10.046875 1.765625 -12.144531 1.921875 -14.34375 C 2.078125 -16.539062 2.195312 -18.519531 2.28125 -20.28125 C 2.4375 -23.71875 2.59375 -27.132812 2.75 -30.53125 C 2.914062 -33.9375 3.078125 -37.359375 3.234375 -40.796875 C 3.398438 -44.796875 3.582031 -48.816406 3.78125 -52.859375 C 3.976562 -56.898438 4.117188 -60.921875 4.203125 -64.921875 C 4.359375 -67.160156 4.351562 -69.640625 4.1875 -72.359375 C 4.03125 -75.078125 4.351562 -77.519531 5.15625 -79.6875 C 5.875 -81.6875 7.210938 -83.1875 9.171875 -84.1875 C 11.140625 -85.1875 13.441406 -85.820312 16.078125 -86.09375 C 18.722656 -86.375 21.460938 -86.414062 24.296875 -86.21875 C 27.140625 -86.019531 29.820312 -85.738281 32.34375 -85.375 C 34.863281 -85.019531 36.921875 -84.722656 38.515625 -84.484375 C 40.359375 -84.242188 42.117188 -83.882812 43.796875 -83.40625 C 45.472656 -82.925781 46.890625 -82.144531 48.046875 -81.0625 C 49.210938 -79.976562 49.914062 -78.359375 50.15625 -76.203125 C 50.476562 -73.960938 50.117188 -71.921875 49.078125 -70.078125 C 48.035156 -68.234375 46.476562 -66.875 44.40625 -66 C 42.800781 -65.363281 41.195312 -65.164062 39.59375 -65.40625 C 38 -65.644531 36.398438 -65.921875 34.796875 -66.234375 C 33.203125 -66.554688 31.644531 -66.519531 30.125 -66.125 C 29.164062 -65.957031 28.203125 -65.3125 27.234375 -64.1875 C 26.273438 -63.070312 25.734375 -61.832031 25.609375 -60.46875 C 25.492188 -59.113281 26.117188 -57.914062 27.484375 -56.875 C 28.523438 -56.15625 30.003906 -55.835938 31.921875 -55.921875 C 33.835938 -56.003906 35.816406 -56.125 37.859375 -56.28125 C 39.898438 -56.4375 41.5625 -56.273438 42.84375 -55.796875 C 44.914062 -54.992188 46.375 -53.953125 47.21875 -52.671875 C 48.0625 -51.398438 48.5625 -49.722656 48.71875 -47.640625 C 49.039062 -45.160156 48.800781 -42.660156 48 -40.140625 C 47.195312 -37.617188 45.476562 -35.957031 42.84375 -35.15625 C 41.238281 -34.757812 39.515625 -34.78125 37.671875 -35.21875 C 35.835938 -35.65625 34.039062 -35.972656 32.28125 -36.171875 C 30.519531 -36.378906 28.957031 -35.84375 27.59375 -34.5625 C 25.914062 -32.957031 25.21875 -31.535156 25.5 -30.296875 C 25.78125 -29.054688 26.640625 -27.992188 28.078125 -27.109375 C 29.515625 -26.234375 31.09375 -25.554688 32.8125 -25.078125 C 34.539062 -24.597656 35.960938 -24.316406 37.078125 -24.234375 C 38.753906 -24.160156 40.59375 -24.179688 42.59375 -24.296875 C 44.59375 -24.421875 46.550781 -24.378906 48.46875 -24.171875 C 50.394531 -23.972656 52.078125 -23.316406 53.515625 -22.203125 C 54.878906 -21.242188 55.738281 -19.882812 56.09375 -18.125 C 56.457031 -16.363281 56.519531 -14.582031 56.28125 -12.78125 C 56.039062 -10.976562 55.679688 -9.398438 55.203125 -8.046875 C 54.003906 -5.078125 52.285156 -3.171875 50.046875 -2.328125 C 47.804688 -1.492188 45.164062 -1 42.125 -0.84375 C 38.4375 -0.675781 34.753906 -0.570312 31.078125 -0.53125 C 27.398438 -0.5 23.679688 -0.398438 19.921875 -0.234375 Z M 19.921875 -0.234375 "/></g></g></g><g fill="#ffffff" fill-opacity="1"><g transform="translate(624.370935, 144.000004)"><g><path d="M 5.640625 -2.28125 C 4.273438 -3.800781 3.3125 -5.757812 2.75 -8.15625 C 2.195312 -10.5625 1.898438 -13.144531 1.859375 -15.90625 C 1.816406 -18.664062 1.894531 -21.34375 2.09375 -23.9375 C 2.300781 -26.539062 2.441406 -28.757812 2.515625 -30.59375 C 2.679688 -32.757812 2.765625 -35.378906 2.765625 -38.453125 C 2.765625 -41.535156 2.863281 -44.796875 3.0625 -48.234375 C 3.257812 -51.679688 3.675781 -55.039062 4.3125 -58.3125 C 4.957031 -61.59375 5.9375 -64.472656 7.25 -66.953125 C 8.570312 -69.441406 10.351562 -71.242188 12.59375 -72.359375 C 15 -73.554688 17.378906 -73.875 19.734375 -73.3125 C 22.097656 -72.757812 24.28125 -71.703125 26.28125 -70.140625 C 28.28125 -68.578125 29.878906 -66.796875 31.078125 -64.796875 C 33.398438 -61.117188 35.378906 -57.316406 37.015625 -53.390625 C 38.660156 -49.472656 40.679688 -45.632812 43.078125 -41.875 C 42.992188 -43.800781 42.8125 -45.984375 42.53125 -48.421875 C 42.257812 -50.859375 42.125 -53.335938 42.125 -55.859375 C 42.125 -58.378906 42.421875 -60.78125 43.015625 -63.0625 C 43.617188 -65.34375 44.679688 -67.28125 46.203125 -68.875 C 48.203125 -70.957031 50.320312 -72.019531 52.5625 -72.0625 C 54.800781 -72.101562 56.800781 -71.382812 58.5625 -69.90625 C 60.320312 -68.425781 61.363281 -66.320312 61.6875 -63.59375 C 62.238281 -59.914062 62.734375 -55.71875 63.171875 -51 C 63.617188 -46.28125 63.820312 -41.441406 63.78125 -36.484375 C 63.738281 -31.523438 63.359375 -26.722656 62.640625 -22.078125 C 61.921875 -17.441406 60.722656 -13.320312 59.046875 -9.71875 C 57.203125 -5.800781 55.179688 -3.5 52.984375 -2.8125 C 50.785156 -2.132812 48.484375 -2.554688 46.078125 -4.078125 C 43.679688 -5.597656 41.320312 -7.796875 39 -10.671875 C 36.675781 -13.554688 34.492188 -16.640625 32.453125 -19.921875 C 30.421875 -23.203125 28.625 -26.238281 27.0625 -29.03125 C 25.5 -31.832031 24.316406 -33.914062 23.515625 -35.28125 C 23.359375 -34.476562 23.054688 -32.835938 22.609375 -30.359375 C 22.171875 -27.878906 21.59375 -25.039062 20.875 -21.84375 C 20.15625 -18.644531 19.316406 -15.484375 18.359375 -12.359375 C 17.398438 -9.242188 16.300781 -6.5625 15.0625 -4.3125 C 13.820312 -2.070312 12.421875 -0.671875 10.859375 -0.109375 C 9.296875 0.441406 7.554688 -0.28125 5.640625 -2.28125 Z M 5.640625 -2.28125 "/></g></g></g><g fill="#ffffff" fill-opacity="1"><g transform="translate(690.01097, 144.000004)"><g><path d="M 29.765625 0 C 27.441406 0 25.617188 -0.554688 24.296875 -1.671875 C 22.972656 -2.796875 22.007812 -4.257812 21.40625 -6.0625 C 20.8125 -7.863281 20.472656 -9.765625 20.390625 -11.765625 C 20.316406 -13.765625 20.320312 -15.601562 20.40625 -17.28125 C 20.644531 -24 21.003906 -30.675781 21.484375 -37.3125 C 21.960938 -43.957031 22.082031 -50.679688 21.84375 -57.484375 C 19.675781 -57.398438 17.332031 -57.335938 14.8125 -57.296875 C 12.300781 -57.253906 9.941406 -57.65625 7.734375 -58.5 C 5.535156 -59.34375 3.878906 -60.921875 2.765625 -63.234375 C 1.640625 -65.554688 1.457031 -67.957031 2.21875 -70.4375 C 2.976562 -72.914062 4.554688 -74.675781 6.953125 -75.71875 C 8.796875 -76.601562 11.097656 -76.941406 13.859375 -76.734375 C 16.617188 -76.535156 19.414062 -76.21875 22.25 -75.78125 C 25.09375 -75.34375 27.515625 -75.039062 29.515625 -74.875 C 32.960938 -74.71875 36.601562 -74.675781 40.4375 -74.75 C 44.28125 -74.832031 47.800781 -74.113281 51 -72.59375 C 52.4375 -71.957031 53.65625 -70.957031 54.65625 -69.59375 C 55.65625 -68.238281 56.234375 -66.757812 56.390625 -65.15625 C 56.554688 -63.5625 56.078125 -62.039062 54.953125 -60.59375 C 53.921875 -59.238281 52.34375 -58.335938 50.21875 -57.890625 C 48.101562 -57.453125 45.90625 -57.253906 43.625 -57.296875 C 41.34375 -57.335938 39.398438 -57.359375 37.796875 -57.359375 C 38.035156 -55.753906 38.4375 -53.253906 39 -49.859375 C 39.5625 -46.460938 40.101562 -42.625 40.625 -38.34375 C 41.144531 -34.0625 41.441406 -29.695312 41.515625 -25.25 C 41.597656 -20.8125 41.316406 -16.691406 40.671875 -12.890625 C 40.035156 -9.097656 38.859375 -6.019531 37.140625 -3.65625 C 35.421875 -1.300781 32.960938 -0.0820312 29.765625 0 Z M 29.765625 0 "/></g></g></g><g fill="#ffffff" fill-opacity="1"><g transform="translate(746.411, 144.000004)"><g><path d="M 20.046875 -0.71875 C 18.285156 -1.039062 16.320312 -1.421875 14.15625 -1.859375 C 12 -2.296875 9.957031 -2.953125 8.03125 -3.828125 C 6.113281 -4.710938 4.597656 -5.957031 3.484375 -7.5625 C 1.960938 -9.800781 1.398438 -11.835938 1.796875 -13.671875 C 2.203125 -15.515625 3.265625 -16.992188 4.984375 -18.109375 C 6.703125 -19.234375 8.722656 -19.757812 11.046875 -19.6875 C 12.484375 -19.6875 14.082031 -19.363281 15.84375 -18.71875 C 17.601562 -18.082031 19.378906 -17.484375 21.171875 -16.921875 C 22.972656 -16.359375 24.675781 -16.21875 26.28125 -16.5 C 27.882812 -16.78125 29.242188 -17.878906 30.359375 -19.796875 C 31.640625 -21.878906 31.816406 -23.738281 30.890625 -25.375 C 29.972656 -27.019531 28.613281 -28.421875 26.8125 -29.578125 C 25.019531 -30.734375 23.363281 -31.675781 21.84375 -32.40625 C 15.757812 -35.363281 11.296875 -39.300781 8.453125 -44.21875 C 5.617188 -49.132812 4.679688 -55.035156 5.640625 -61.921875 C 6.597656 -68.796875 9.359375 -74.734375 13.921875 -79.734375 C 18.484375 -84.734375 24.039062 -88.15625 30.59375 -90 C 33.800781 -90.957031 37.300781 -91.476562 41.09375 -91.5625 C 44.894531 -91.644531 48.273438 -90.765625 51.234375 -88.921875 C 52.921875 -87.878906 54.203125 -86.457031 55.078125 -84.65625 C 55.960938 -82.851562 56.179688 -81.09375 55.734375 -79.375 C 55.296875 -77.65625 53.835938 -76.394531 51.359375 -75.59375 C 48.796875 -74.800781 46.210938 -73.703125 43.609375 -72.296875 C 41.015625 -70.898438 38.71875 -69.28125 36.71875 -67.4375 C 34.71875 -65.601562 33.273438 -63.582031 32.390625 -61.375 C 31.515625 -59.175781 31.4375 -56.875 32.15625 -54.46875 C 32.875 -52.070312 34.71875 -49.632812 37.6875 -47.15625 C 39.519531 -45.5625 41.394531 -44.101562 43.3125 -42.78125 C 45.238281 -41.457031 47.039062 -40.015625 48.71875 -38.453125 C 50.394531 -36.898438 51.753906 -34.921875 52.796875 -32.515625 C 54.160156 -29.554688 54.898438 -26.335938 55.015625 -22.859375 C 55.140625 -19.378906 54.5625 -16.117188 53.28125 -13.078125 C 51.914062 -9.796875 49.992188 -7.195312 47.515625 -5.28125 C 45.035156 -3.363281 42.253906 -2.003906 39.171875 -1.203125 C 36.097656 -0.398438 32.921875 0 29.640625 0 C 26.359375 0 23.160156 -0.238281 20.046875 -0.71875 Z M 20.046875 -0.71875 "/></g></g></g></svg>